<svg width="8" height="5" viewBox="0 0 8 5" fill="none" xmlns="http://www.w3.org/2000/svg">
<path d="M7.59976 1.39552e-06L0.399555 7.66059e-07C0.326656 0.000191495 0.2552 0.0169757 0.192879 0.0485466C0.130557 0.0801175 0.079729 0.125279 0.0458669 0.179171C0.0120043 0.233063 -0.00361115 0.293644 0.00070231 0.354394C0.00501577 0.415143 0.0290941 0.47376 0.0703458 0.523935L3.67045 4.86501C3.81965 5.045 4.17886 5.045 4.32847 4.86501L7.92857 0.523936C7.97024 0.473865 7.99468 0.415219 7.99922 0.354368C8.00377 0.293518 7.98826 0.23279 7.95436 0.178784C7.92047 0.124778 7.8695 0.0795584 7.80698 0.0480389C7.74446 0.0165195 7.67279 -9.49192e-05 7.59976 1.39552e-06Z" fill="#E21616"/>
</svg>
