<svg width="8" height="6" viewBox="0 0 8 6" fill="none" xmlns="http://www.w3.org/2000/svg">
<path d="M7.98411 2.90727C7.67046 2.07754 7.12595 1.35999 6.41788 0.843296C5.70981 0.326606 4.86922 0.033429 4 0C3.13078 0.033429 2.29019 0.326606 1.58212 0.843296C0.874049 1.35999 0.329539 2.07754 0.015887 2.90727C-0.00529567 2.96719 -0.00529567 3.03281 0.015887 3.09273C0.329539 3.92246 0.874049 4.64001 1.58212 5.1567C2.29019 5.67339 3.13078 5.96657 4 6C4.86922 5.96657 5.70981 5.67339 6.41788 5.1567C7.12595 4.64001 7.67046 3.92246 7.98411 3.09273C8.0053 3.03281 8.0053 2.96719 7.98411 2.90727ZM4 4.77273C3.65717 4.77273 3.32204 4.66876 3.03698 4.47397C2.75193 4.27918 2.52976 4.00232 2.39856 3.67839C2.26737 3.35447 2.23304 2.99803 2.29992 2.65416C2.36681 2.31028 2.5319 1.99441 2.77431 1.74649C3.01673 1.49857 3.32559 1.32974 3.66183 1.26134C3.99808 1.19293 4.3466 1.22804 4.66334 1.36221C4.98007 1.49639 5.25079 1.7236 5.44126 2.01513C5.63172 2.30665 5.73338 2.64939 5.73338 3C5.73268 3.46994 5.54983 3.92042 5.22491 4.25271C4.89999 4.58501 4.45951 4.77201 4 4.77273Z" fill="#E21616"/>
</svg>
