<svg width="9" height="9" viewBox="0 0 9 9" fill="none" xmlns="http://www.w3.org/2000/svg">
<path d="M3.15 9C3.03065 9 2.91619 8.95259 2.8318 8.8682C2.74741 8.78381 2.7 8.66935 2.7 8.55V7.2H0.9C0.661305 7.2 0.432387 7.10518 0.263604 6.9364C0.0948211 6.76761 0 6.53869 0 6.3V0.9C0 0.661305 0.0948211 0.432387 0.263604 0.263604C0.432387 0.0948211 0.661305 0 0.9 0H8.1C8.3387 0 8.56761 0.0948211 8.7364 0.263604C8.90518 0.432387 9 0.661305 9 0.9V6.3C9 6.53869 8.90518 6.76761 8.7364 6.9364C8.56761 7.10518 8.3387 7.2 8.1 7.2H5.355L3.69 8.8695C3.6 8.955 3.4875 9 3.375 9H3.15Z" fill="#E21616"/>
</svg>
