<svg width="23" height="28" viewBox="0 0 23 28" fill="none" xmlns="http://www.w3.org/2000/svg">
<path d="M11.5538 28C12.1257 28 12.6741 27.7608 13.0785 27.335C13.4829 26.9092 13.71 26.3317 13.71 25.7296V7.74774L19.3738 13.7114C19.7825 14.1125 20.3232 14.3308 20.8818 14.3204C21.4404 14.31 21.9734 14.0718 22.3684 13.6558C22.7635 13.2398 22.9898 12.6786 22.9997 12.0904C23.0095 11.5022 22.8022 10.9329 22.4213 10.5025L13.0775 0.663996C12.6732 0.238818 12.1252 0 11.5538 0C10.9824 0 10.4343 0.238818 10.03 0.663996L0.686286 10.5025C0.474437 10.7104 0.304518 10.961 0.186666 11.2396C0.0688142 11.5181 0.00544383 11.8187 0.000335575 12.1236C-0.00477268 12.4284 0.0484853 12.7312 0.156933 13.0139C0.265381 13.2966 0.426797 13.5534 0.631551 13.769C0.836305 13.9846 1.0802 14.1546 1.34869 14.2688C1.61718 14.383 1.90477 14.4391 2.19429 14.4337C2.48381 14.4283 2.76933 14.3616 3.03383 14.2375C3.29833 14.1134 3.53638 13.9345 3.73379 13.7114L9.39754 7.74774V25.7296C9.39754 26.9828 10.3635 28 11.5538 28Z" fill="#E21616"/>
</svg>
